<svg width="168" height="312" viewBox="0 0 168 312" fill="none" xmlns="http://www.w3.org/2000/svg">
<path fill-rule="evenodd" clip-rule="evenodd" d="M-0.0299683 -6.81989H167.61V203.161H-0.0299683V-6.81989Z" fill="#4AF6CD"/>
<path d="M60.0894 165.733C60.0894 162.573 60.5494 159.793 61.4694 157.393C62.3894 154.953 63.7694 152.773 65.6094 150.853L71.4894 155.833C69.2094 158.713 68.0694 161.733 68.0694 164.893C68.0694 166.533 68.3894 167.793 69.0294 168.673C69.6294 169.513 70.4894 169.933 71.6094 169.933C72.4094 169.933 73.0694 169.713 73.5894 169.273C74.1094 168.833 74.6094 168.093 75.0894 167.053C75.5694 166.013 76.1694 164.373 76.8894 162.133C78.2494 157.853 79.9694 154.733 82.0494 152.773C84.0894 150.773 86.9294 149.773 90.5694 149.773C93.2094 149.773 95.5494 150.453 97.5894 151.813C99.5894 153.173 101.149 155.153 102.269 157.753C103.389 160.313 103.949 163.333 103.949 166.813C103.949 173.453 101.929 178.873 97.8894 183.073L91.8294 177.613C94.5494 174.293 95.9094 170.833 95.9094 167.233C95.9094 165.353 95.5094 163.893 94.7094 162.853C93.8694 161.813 92.7694 161.293 91.4094 161.293C90.4494 161.293 89.6694 161.493 89.0694 161.893C88.4294 162.293 87.8694 163.013 87.3894 164.053C86.8694 165.053 86.3094 166.533 85.7094 168.493C84.2294 173.213 82.4494 176.533 80.3694 178.453C78.2894 180.373 75.6694 181.333 72.5094 181.333C70.0294 181.333 67.8494 180.673 65.9694 179.353C64.0894 177.993 62.6494 176.133 61.6494 173.773C60.6094 171.373 60.0894 168.693 60.0894 165.733ZM88.8894 112.328C91.7694 112.328 94.3494 112.968 96.6294 114.248C98.9094 115.488 100.709 117.368 102.029 119.888C103.309 122.408 103.949 125.488 103.949 129.128C103.949 134.648 102.609 138.828 99.9294 141.668C97.2094 144.508 93.5294 145.928 88.8894 145.928H61.1694V134.828H88.5294C91.0494 134.828 92.9094 134.388 94.1094 133.508C95.2694 132.588 95.8494 131.128 95.8494 129.128C95.8494 127.128 95.2494 125.688 94.0494 124.808C92.8494 123.928 91.0094 123.488 88.5294 123.488H61.1694V112.328H88.8894ZM87.5094 92.3203V95.3803H102.869V106.48H61.1694L61.1694 92.0203C61.1694 86.1403 62.2294 81.7603 64.3494 78.8803C66.4694 75.9603 69.7294 74.5003 74.1294 74.5003C76.7694 74.5003 78.9694 75.1203 80.7294 76.3603C82.4894 77.5603 84.0694 79.5003 85.4694 82.1803L102.869 71.8003V84.1603L87.5094 92.3203ZM79.9494 95.3803V91.6603C79.9494 87.8203 78.0094 85.9003 74.1294 85.9003C72.3294 85.9003 71.0094 86.4403 70.1694 87.5203C69.3294 88.5603 68.9094 90.1403 68.9094 92.2603V95.3803H79.9494ZM102.869 69.2733H61.1694V43.6533L69.0294 44.7933V58.1733H79.0494V46.4133H86.9094V58.1733H102.869V69.2733Z" fill="white"/>
<path d="M60.0894 289.92C60.0894 284.36 61.8494 279.58 65.3694 275.58L71.0694 281.04C69.9894 282.56 69.2094 283.94 68.7294 285.18C68.2094 286.38 67.9494 287.76 67.9494 289.32C67.9494 292.32 69.1094 294.68 71.4294 296.4C73.7494 298.08 77.2894 298.92 82.0494 298.92C85.5294 298.92 88.2894 298.64 90.3294 298.08C92.3294 297.52 93.7694 296.68 94.6494 295.56C95.5294 294.4 95.9694 292.92 95.9694 291.12C95.9694 289.32 95.5894 287.68 94.8294 286.2H86.2494V290.94L78.6294 292.02V275.46H99.3894C100.829 277.62 101.949 280.06 102.749 282.78C103.549 285.5 103.949 288.18 103.949 290.82C103.949 303.86 96.6294 310.38 81.9894 310.38C77.4294 310.38 73.5094 309.5 70.2294 307.74C66.9094 305.94 64.3894 303.5 62.6694 300.42C60.9494 297.34 60.0894 293.84 60.0894 289.92ZM60.0894 252.335C60.0894 246.295 62.0094 241.595 65.8494 238.235C69.6894 234.875 75.0694 233.195 81.9894 233.195C86.5094 233.195 90.4294 233.955 93.7494 235.475C97.0294 236.955 99.5494 239.135 101.309 242.015C103.069 244.895 103.949 248.335 103.949 252.335C103.949 258.375 102.029 263.075 98.1894 266.435C94.3494 269.755 88.9494 271.415 81.9894 271.415C77.4694 271.415 73.5694 270.675 70.2894 269.195C67.0094 267.675 64.4894 265.495 62.7294 262.655C60.9694 259.775 60.0894 256.335 60.0894 252.335ZM68.0694 252.335C68.0694 254.935 69.1494 256.855 71.3094 258.095C73.4694 259.295 77.0294 259.895 81.9894 259.895C86.9494 259.895 90.5294 259.275 92.7294 258.035C94.8894 256.795 95.9694 254.895 95.9694 252.335C95.9694 249.695 94.8894 247.775 92.7294 246.575C90.5694 245.375 86.9894 244.775 81.9894 244.775C77.0294 244.775 73.4694 245.375 71.3094 246.575C69.1494 247.775 68.0694 249.695 68.0694 252.335Z" fill="white"/>
<rect x="82.7923" y="214.155" width="21.9876" height="0.997859" transform="rotate(-90 82.7923 214.155)" fill="white"/>
</svg>
